<svg xmlns="http://www.w3.org/2000/svg" xmlns:xlink="http://www.w3.org/1999/xlink" version="1.1" x="0px" y="0px" viewBox="0 0 100 125" enable-background="new 0 0 100 100" xml:space="preserve"><g><circle cx="28.303" cy="41.667" r="3.656"/><path d="M94.388,18.283c-0.405-1.195-1.7-1.834-2.898-1.425c-1.194,0.406-1.833,1.704-1.426,2.899   c0.5,1.465,0.497,2.575-0.007,3.303c-0.28,0.403-0.717,0.708-1.2,0.948c0.082-2.628-1.601-5.159-4.304-6.11   c-0.709-0.25-1.447-0.376-2.189-0.376c-2.646,0-4.991,1.619-5.836,4.027c-1.118,3.177,0.666,6.71,3.974,7.874   c0.381,0.133,0.77,0.226,1.162,0.289c-1.104,0.968-2.346,1.789-3.321,2.339c-6.428-7.195-16.634-11.856-28.107-11.856   c-4.359,0-6.846,0-9.967,0.63c-3.662-4.802-9.714-7.726-16.187-7.726c-2.997,0-5.886,0.609-8.586,1.809   c-0.809,0.359-1.337,1.153-1.356,2.038c-0.019,0.886,0.477,1.702,1.268,2.095c0.092,0.047,8.821,4.562,8.837,10.688   c-0.87,0.913-2.488,2.653-3.563,4.047c-0.044,0.051-0.087,0.104-0.128,0.161l-0.3,0.403c-1.178,1.526-5.981,5.959-10.225,5.959   C7.256,40.297,5,42.551,5,45.323v10.966c0,2.771,2.256,5.026,5.027,5.026c5.159,0,10.624,4.371,11.247,4.884   c0.899,0.907,2.379,2.514,3.07,3.527c2.556,9.375,2.687,10.163,3.381,14.355l0.152,0.911c0.183,1.102,1.137,1.91,2.253,1.91h8.224   c1.157,0,2.133-0.867,2.269-2.016c0.254-2.133,0.652-4.632,1.004-6.193c5.622,1.192,11.594,1.192,17.215,0   c0.352,1.562,0.75,4.061,1.005,6.193c0.136,1.148,1.11,2.016,2.268,2.016h8.225c1.116,0,2.07-0.809,2.253-1.91   c0.756-4.532,2.829-12.577,3.438-14.903c6.062-5.508,9.387-12.653,9.387-20.197c0-5.127-1.548-9.957-4.27-14.171   c2.55-1.5,5.368-3.807,6.806-6.634c1.787-0.35,4.316-1.223,5.84-3.397C94.751,24.321,95.63,21.928,94.388,18.283z M72.466,67.145   c-0.437,0.378-0.692,0.888-0.76,1.424c-0.415,1.572-2.264,8.647-3.27,13.764h-4.312c-0.678-4.887-1.343-6.665-1.809-7.424   c-0.494-0.92-1.569-1.397-2.601-1.122c-6.13,1.641-12.832,1.641-18.962,0c-0.952-0.255-1.937,0.138-2.47,0.926   c-0.466,0.636-1.195,2.253-1.939,7.62h-4.277c-0.585-3.483-0.911-4.989-3.29-13.717c-0.034-0.311-0.132-0.617-0.299-0.899   c-1.063-1.816-3.741-4.516-4.043-4.818c-0.041-0.042-0.085-0.081-0.129-0.119c-0.287-0.246-7.121-6.034-14.279-6.034   c-0.252,0-0.457-0.205-0.457-0.457V45.323c0-0.252,0.205-0.457,0.457-0.457c6.54,0,12.583-6.104,13.887-7.796l0.258-0.341   c0.018-0.023,0.036-0.047,0.056-0.07c1.304-1.723,3.855-4.333,3.88-4.359c0.357-0.363,0.582-0.838,0.639-1.346   c0.652-5.895-3.445-10.425-6.892-13.141c0.732-0.097,1.474-0.145,2.227-0.145c5.499,0,10.576,2.659,13.251,6.936   c0.524,0.838,1.529,1.245,2.49,1.005c3.384-0.847,5.587-0.847,10.412-0.847c16.881,0,30.614,11.273,30.614,25.131   C80.849,56.325,77.872,62.451,72.466,67.145z M80.838,23.062c0.204-0.58,0.817-0.971,1.525-0.971c0.226,0,0.452,0.04,0.672,0.117   c0.935,0.328,1.464,1.247,1.183,2.049c-0.27,0.768-1.283,1.178-2.199,0.855C81.086,24.784,80.557,23.864,80.838,23.062z"/><path d="M55.262,42.582c0,1.261,1.022,2.284,2.283,2.284c1.262,0,2.284-1.022,2.284-2.284c0-4.503-3.12-8.281-7.31-9.309v-3.485   c0-1.263-1.022-2.285-2.285-2.285c-1.262,0-2.284,1.022-2.284,2.285v3.485c-4.189,1.028-7.311,4.806-7.311,9.309   c0,4.501,3.121,8.279,7.311,9.308v9.784c-1.624-0.833-2.74-2.522-2.74-4.471c0-1.261-1.024-2.284-2.285-2.284   c-1.263,0-2.285,1.022-2.285,2.284c0,4.501,3.121,8.279,7.311,9.309v3.483c0,1.263,1.022,2.285,2.284,2.285   c1.263,0,2.285-1.022,2.285-2.285v-3.483c4.189-1.03,7.31-4.808,7.31-9.309s-3.12-8.281-7.31-9.309v-9.782   C54.146,38.943,55.262,40.632,55.262,42.582z M45.21,42.582c0-1.95,1.116-3.639,2.74-4.471v8.941   C46.326,46.218,45.21,44.53,45.21,42.582z M55.262,57.203c0,1.948-1.116,3.637-2.742,4.471V52.73   C54.146,53.565,55.262,55.253,55.262,57.203z"/></g><text x="0" y="115" fill="#000000" font-size="5px" font-weight="bold" font-family="'Helvetica Neue', Helvetica, Arial-Unicode, Arial, Sans-serif">Created by Matt Brooks</text><text x="0" y="120" fill="#000000" font-size="5px" font-weight="bold" font-family="'Helvetica Neue', Helvetica, Arial-Unicode, Arial, Sans-serif">from the Noun Project</text></svg>