<?xml version="1.0" encoding="utf-8"?>
<!-- Generator: Adobe Illustrator 21.1.0, SVG Export Plug-In . SVG Version: 6.00 Build 0)  -->
<svg version="1.1" id="Слой_1" xmlns="http://www.w3.org/2000/svg" xmlns:xlink="http://www.w3.org/1999/xlink" x="0px" y="0px"
	 viewBox="0 0 82.7 93" style="enable-background:new 0 0 82.7 93;" xml:space="preserve">
<style type="text/css">
	.st0{fill:#FFFFFF;}
</style>
<g>
	<path class="st0" d="M57.9,73.1c-0.9,0-1.7-0.1-2.6-0.1v5.8H11.5V9.6h43.8v6c0.9-0.1,1.7-0.1,2.6-0.1c0.6,0,1.1,0.1,1.7,0.1V6.1
		c0-3.3-2.7-6.1-6.1-6.1H13.4C10,0,7.3,2.7,7.3,6.1v77.8c0,3.3,2.7,6.1,6.1,6.1h40.1c3.3,0,6.1-2.7,6.1-6.1V73
		C59,73,58.5,73.1,57.9,73.1z M27,4.4h12.8c0.4,0,0.7,0.3,0.7,0.7c0,0.4-0.3,0.7-0.7,0.7H27c-0.4,0-0.7-0.3-0.7-0.7
		C26.3,4.7,26.6,4.4,27,4.4z M33.4,87c-1.7,0-3-1.4-3-3c0-1.7,1.4-3,3-3c1.7,0,3,1.4,3,3C36.5,85.6,35.1,87,33.4,87z M75.7,33.7
		c0.1,0.2,0.3,0.3,0.5,0.4l-0.8,0.5L74,32.7l0.2-0.3C74.6,33,75.7,33.7,75.7,33.7z M57.9,19.5c-13.7,0-24.8,11.1-24.8,24.8
		s11.1,24.8,24.8,24.8S82.7,58,82.7,44.3S71.6,19.5,57.9,19.5z M43.3,27.2c0.9,1.3-1.2,1.5-1.2,1.5c-0.2,0.1-0.4,0.2-0.6,0.3
		C42.1,28.3,42.7,27.7,43.3,27.2z M45.6,48.9c-0.8,1-0.7,2-0.7,2c1,3.5-1,3.5-1,3.5c-1.4,0.2-0.9,2-0.9,2c0,1-0.6,1.8-0.6,1.8
		c0.6,0.8,0.1,1.6,0.1,1.6c-0.1,0.2-0.2,0.4-0.2,0.5c-4.3-4.1-6.9-9.8-6.9-16.1c0-1.3,0.1-2.6,0.3-3.8c0.1-0.2,0.2-0.4,0.2-0.4
		l0.9,0.5c0.8-0.3,1.2,0.9,1.2,0.9c0.7-0.1,0.9,1.1,0.9,1.1c1.7-0.7,2,2.4,2,2.4c0.9,0,1.9,1.1,1.9,1.1c1.7,0,2,1.1,2,1.1
		C46.4,46.8,45.6,48.9,45.6,48.9z M46.2,26.1c-0.1,1.2-2.3,1.1-2.8,1c0.9-0.7,1.8-1.4,2.8-2V26.1z M76.8,37.2c0,0-0.4,1.2-1.8,1.9
		c0,0-1.9-4.6-4.2-5.6c0,0,2.4,4.3,4.4,6.2c0,0,0.6,0.3,1.4-0.1c0,0,0.1,3.6-2,6c0,0-0.5,1.3-0.3,2.7c0,0,0.3,2.4-1.4,3.6
		c0,0-0.8,0.5-0.8,1.9c0,0,0,1.1-1.2,1.1c0,0-1.3,2.8-5.1,2.3c0,0,0-2-1.1-4.5c0,0-1-1.3,0.5-2.8c0,0,1.4-0.7-0.8-3.2
		c0,0-1.4-1.2-0.7-2.5c0,0,0.2-1.1-0.3-1.4c0,0-1.5,0.3-1.9-0.8c0,0-2.9,1.1-4.2,0.5c0,0-1.7,1.1-3-1.4c0,0-2.2-1.3-1.4-2.5
		c0,0,0.2-1.2,0.2-2.4c0,0,0.2-2,2.4-2.9c0,0,0.7-2,1.7-2c0,0,2.1-0.1,3.2-0.5c0,0,1.4-0.4,2.3-0.2c0,0,0.6,0.9,0.2,1.4
		c0,0,1.5-0.5,2.5,0.7c0,0,1-0.1,0.8-0.9c0,0,2.6,1.5,3.9,0.7c0,0,0.3-2.2-0.9-2.1c0,0-1.9,0.1-2.8-1.2c0,0-1-0.4-0.8,0.2
		c0,0,0.1,0.7,0.9,0.9c0,0-0.2,0.7-1,0.3c0,0-0.7-0.2-0.9-1.6c0,0-1.8-0.3-2.2-1.1c0,0-1.1,0.3,1.4,1.5c0,0,1,0.8-0.3,1.3
		c0,0-0.9-0.4,0.1-0.7c0,0-0.2-0.4-1.2-0.8c0,0-0.7-0.6-0.8-1.1c0,0-1.3,0.9-1.9,0.3c0,0-0.2,1.1-0.9,1.1c0,0-0.1,1.6-2.3,1h-0.7
		c0,0-0.6-1.5,0.2-2c0,0,1.4,0.3,1.8,0c0.3-0.3,0.6-0.9-0.3-1.1c0,0-1.3-0.3-0.8-1c0,0,0.7-0.8,1.3,0.2c0,0,1.1-0.8,2.5-0.9
		c0,0,2.6-1.1,1.9-1.9c0,0-1.7,1-2.4,0.4c0,0-2.2-0.7-0.4-2.5c7.7,0.7,14.2,5.4,17.6,12c-0.3,0.1-0.8,0.3-1.2,0.2
		C76.7,34.5,78.1,36.1,76.8,37.2z"/>
</g>
</svg>
