<?xml version="1.0" encoding="utf-8"?>
<!-- Generator: Adobe Illustrator 21.1.0, SVG Export Plug-In . SVG Version: 6.00 Build 0)  -->
<svg version="1.1" id="Слой_1" xmlns="http://www.w3.org/2000/svg" xmlns:xlink="http://www.w3.org/1999/xlink" x="0px" y="0px"
	 viewBox="0 0 100 86" style="enable-background:new 0 0 100 86;" xml:space="preserve">
<style type="text/css">
	.st0{fill:#FFFFFF;}
</style>
<path class="st0" d="M15.6,69.9c0-1.4,1.1-2.5,2.5-2.5h23c1.4,0,2.5,1.1,2.5,2.5v0.4h12.7v-0.4c0-1.4,1.1-2.5,2.5-2.5h23.1
	c1.4,0,2.5,1.1,2.5,2.5s-1.1,2.5-2.5,2.5h-21c-0.8,1.7-2.5,2.9-4.6,2.9H43.7c-2,0-3.8-1.2-4.6-2.9h-21
	C16.8,72.4,15.6,71.3,15.6,69.9z M0.4,74.6v-4.7c0-1.4,1.1-2.5,2.5-2.5h4.7V22.3c0-3.6,2.9-6.5,6.5-6.5h71.5c3.5,0,6.4,2.7,6.7,6.3
	c0,0.1,0,0.2,0,0.2v45.1H97c1.4,0,2.5,1.1,2.5,2.5v4.7c0,5.3-4.3,9.6-9.6,9.6H10C4.7,84.2,0.4,79.9,0.4,74.6z M5.4,74.6
	c0,2.5,2.1,4.6,4.6,4.6h80c2.5,0,4.6-2.1,4.6-4.6v-2.2h-4.7c-1.4,0-2.5-1.1-2.5-2.5V22.5c-0.1-0.9-0.9-1.7-1.7-1.7H14.1
	c-0.8,0-1.5,0.7-1.5,1.5v47.6c0,1.4-1.1,2.5-2.5,2.5H5.4V74.6z M34.1,58.6V46.1c0-2.5,1.9-4.6,4.4-4.9v-4.5
	c0-6.3,5.2-11.5,11.5-11.5s11.5,5.2,11.5,11.5v4.5c2.5,0.3,4.4,2.3,4.4,4.9v12.5c0,2.7-2.2,4.9-4.9,4.9H39
	C36.3,63.5,34.1,61.3,34.1,58.6z M60.9,46.2H39.1v12.3h21.7V46.2H60.9z M43.5,36.7v4.5h13v-4.5c0-3.6-2.9-6.5-6.5-6.5
	S43.5,33.2,43.5,36.7z"/>
</svg>
