<?xml version="1.0" encoding="utf-8"?>
<!-- Generator: Adobe Illustrator 21.1.0, SVG Export Plug-In . SVG Version: 6.00 Build 0)  -->
<svg version="1.1" id="Layer_1" xmlns="http://www.w3.org/2000/svg" xmlns:xlink="http://www.w3.org/1999/xlink" x="0px" y="0px"
	 viewBox="0 0 87 34.3" style="enable-background:new 0 0 87 34.3;" xml:space="preserve">
<style type="text/css">
	.st0{fill:#555555;}
</style>
<g>
	<path class="st0" d="M37,22.9c-0.3-1.2-0.8-2.1-1.6-2.8c-0.3-0.3-0.6-0.5-1-0.7c-0.2-0.1-0.3-0.2-0.6-0.3c-0.3-0.1-0.8-0.2-1.5-0.2
		c0.3-0.2,0.8-0.2,1.3-0.2c0.4,0,0.8,0.2,1.1,0.3c0.3,0.2,0.6,0.3,0.9,0.5c0.7-2.2,0.4-5.1-0.4-7.1c-0.8-2-1.9-3.7-3.4-5
		c-1.5-1.3-3.2-2.4-5.5-2.8c-1.1-0.2-2.6-0.2-3.6,0c-1.1,0.3-2,0.8-2.8,1.4c-0.7,0.7-1.5,1.3-2,2.3c-0.2,0.2-0.3,0.5-0.4,0.7
		c-0.1,0.3-0.2,0.5-0.3,0.7c-0.2,0.5-0.4,1-0.5,1.6c-0.3,1.1-0.3,2.6-0.1,3.7c0.1,1.3,0.5,2.3,0.9,3.3c0.2,0.5,0.5,1,0.7,1.4
		c0.3,0.4,0.6,0.8,0.9,1.2c0.7,0.7,1.4,1.4,2.2,2c1.7,1.1,3.6,2,6.3,2.1c0.1-0.1-0.1-0.3-0.1-0.5s-0.1-0.3-0.1-0.5
		c0-0.4,0-0.8,0-1.1c0.1,0,0.1,0.2,0.2,0.2c0.1,0.1,0.1,0.2,0.2,0.2c0.1,0.2,0.2,0.3,0.3,0.5c0.3,0.3,0.4,0.6,0.8,0.8
		c0.3,0.3,0.6,0.4,0.9,0.6c0.3,0.2,0.6,0.4,1,0.5c0.7,0.3,1.5,0.5,2.4,0.6s1.7,0.3,2.5,0.5c0.7,0.3,1.5,0.5,2.1,0.9
		c0.3,0.2,0.6,0.4,0.9,0.6c0.1,0.1,0.3,0.2,0.4,0.3c0.2,0.1,0.3,0.2,0.4,0.3c0.5,0.5,1,1,1.5,1.6c0.2,0.3,0.4,0.6,0.6,1
		c0.1,0.1,0.2,0.4,0.3,0.5c0,0.2,0.2,0.4,0,0.6c-0.2,0-0.2-0.2-0.3-0.3s-0.2-0.2-0.2-0.4c-0.4-0.4-0.7-0.9-1.2-1.2
		c-0.4-0.4-0.8-0.7-1.3-1c-0.9-0.7-2-1.2-3.2-1.5c-1.2-0.4-2.6-0.5-4.2-0.4c-0.7,0.1-1.4,0.2-2,0.4s-1.3,0.2-2,0.3
		c-2.7,0.2-5.7-0.5-7.8-1.5c-1.1-0.5-2.1-1.1-2.9-1.8c-0.5-0.3-0.8-0.8-1.2-1.2s-0.7-0.8-1-1.4c-0.4-0.4-0.6-1-0.9-1.5
		c-0.2-0.6-0.5-1.1-0.6-1.8c-0.2-0.6-0.3-1.3-0.4-2c0-0.2-0.1-0.6-0.1-0.9v-0.1c0-0.3-0.1-0.7,0-1c0-0.7,0.1-1.5,0.2-2.1
		c0.1-0.7,0.3-1.3,0.5-1.9s0.5-1.1,0.7-1.7c0.2-0.2,0.3-0.5,0.4-0.8c0.1-0.3,0.3-0.5,0.4-0.7c0.1-0.1,0.1-0.2,0.3-0.3
		c0.1-0.1,0.2-0.2,0.2-0.4c0.1-0.1,0.2-0.2,0.3-0.3c0.1-0.1,0.2-0.2,0.3-0.3c0.4-0.4,0.7-0.8,1.2-1.2c0.4-0.4,0.9-0.7,1.3-1.1
		c0.3-0.1,0.5-0.3,0.7-0.5c0.2-0.2,0.5-0.3,0.7-0.5c0.6-0.2,1-0.6,1.6-0.8c0.5-0.3,1.1-0.4,1.7-0.6c1.3-0.3,2.6-0.6,4.1-0.5
		c0.1,0,0.1-0.1,0.1,0c3,0.1,5.2,1,7.1,2.2c1.8,1.2,3.3,2.9,4.3,4.9s1.6,4.8,1.1,7.7c-0.2,1.3-0.6,2.5-1.1,3.5
		c-0.3,0.5-0.5,1-0.8,1.5c-0.1,0.2-0.3,0.5-0.5,0.7c-0.1,0.1-0.1,0.2-0.2,0.3c0,0.1-0.1,0.1-0.1,0.2C37.1,22.9,37.1,22.9,37,22.9
		C37.1,23,37,23,37,22.9z"/>
	<path class="st0" d="M36.2,23.8c-0.4-0.2-0.5-0.6-0.6-1c0-0.1-0.1-0.3,0-0.5c0,0,0,0,0.1,0c0.1-0.1,0.2,0,0.3,0.1
		c0.2,0.2,0.3,0.5,0.4,0.8C36.4,23.5,36.4,23.7,36.2,23.8z"/>
	<path class="st0" d="M33.3,23.2C33.3,23.2,33.4,23.2,33.3,23.2c0.6,0.1,0.9,0.5,0.9,1.1c0,0.4-0.2,0.6-0.5,0.6
		c-0.8,0-1.2-0.7-1-1.5C32.9,23.4,33,23.2,33.3,23.2z"/>
</g>
<g>
	<path class="st0" d="M48,20.9c0.1,0.4,0.3,0.7,0.5,1s0.5,0.5,0.8,0.7s0.6,0.4,1,0.5c0.2,0.1,0.4,0.1,0.6,0.2
		c0.2,0.1,0.4,0.1,0.4,0.4c0,0.3-0.2,0.4-0.4,0.4s-0.5,0-0.7-0.1c-0.5-0.1-0.9-0.2-1.3-0.4c-0.8-0.3-1.5-0.8-2.1-1.3
		c-0.1-0.2-0.3-0.3-0.4-0.5c-0.1-0.2-0.2-0.4-0.3-0.6c-1-0.1-1.7-0.6-2.3-1.1c-0.5-0.6-1-1.4-1.2-2.4s-0.1-2.1,0.1-3
		c0.5-1.8,1.7-3,3.8-3.1c0.6,0,1.1,0.1,1.6,0.3c0.5,0.2,0.9,0.5,1.3,0.8c0,0,0,0,0.1,0.1s0.3,0.3,0.4,0.4v0.1c0,0.1,0.1,0.1,0.1,0.1
		v0.1c0,0,0.1,0.1,0.1,0.2c0,0,0.1,0,0.1,0.1c0.1,0.1,0.1,0.2,0.1,0.4c0.1,0.1,0.1,0.2,0.2,0.4c0.1,0.4,0.2,0.8,0.3,1.3
		c0.1,1.3-0.1,2.5-0.6,3.4c-0.2,0.5-0.6,0.8-0.9,1.2C48.9,20.5,48.4,20.7,48,20.9z M46.4,12.6c-0.3,0-0.5,0.2-0.7,0.2
		c-0.2,0.1-0.3,0.2-0.5,0.4c-0.2,0.1-0.2,0.4-0.4,0.5c-0.1,0.3-0.3,0.7-0.3,1.1c-0.1,0.4-0.1,0.9-0.1,1.3c0,1.1,0.2,2.3,0.7,2.9
		c0.3,0.3,0.6,0.6,1,0.8c0.2,0,0.4,0.1,0.7,0.1c0.1,0,0.4,0,0.5-0.1c0.2,0,0.3-0.1,0.4-0.1c0.1-0.1,0.2-0.2,0.3-0.2
		c0.1-0.1,0.2-0.3,0.4-0.4c0.1-0.1,0.1-0.2,0.2-0.3c0.6-1.1,0.6-3.1,0.3-4.4c-0.1-0.5-0.3-0.8-0.6-1.2c-0.2-0.3-0.5-0.5-0.9-0.6
		C47.1,12.6,46.8,12.5,46.4,12.6C46.4,12.5,46.4,12.5,46.4,12.6L46.4,12.6z"/>
	<path class="st0" d="M53.4,11.6c0.5,0,1.1,0,1.6,0c0.1,0.2,0.1,0.3,0.1,0.5c0,2.4,0,5,0,7.5c0,0.2,0,0.4,0,0.6c0,0.2,0,0.3-0.1,0.5
		c-0.2,0.1-0.6,0-0.9,0c-0.3,0-0.6,0-0.8-0.1c-0.1-2.9-0.1-6.1,0-9C53.3,11.7,53.3,11.6,53.4,11.6z"/>
	<path class="st0" d="M57.3,11.6c0.5,0,1,0,1.6,0c0.1,0.2,0.2,0.5,0.2,0.8c0.5,1.8,0.9,3.6,1.4,5.4c0.1,0,0.1-0.1,0.1-0.2
		c0,0,0-0.2,0.1-0.2c0-0.1,0.1-0.2,0.1-0.4c0.1-0.2,0.2-0.5,0.3-0.8c0.1-0.5,0.3-1,0.5-1.6c0.1-0.5,0.3-1,0.5-1.6
		c0.2-0.5,0.3-1.1,0.5-1.5c0.2,0,0.4,0,0.7,0c0.2,0.4,0.3,1,0.5,1.5c0.1,0.5,0.3,1,0.5,1.6c0.3,1,0.7,2.1,1,3.1
		c0.1-0.2,0.1-0.5,0.2-0.8s0.1-0.5,0.2-0.8c0.3-1,0.5-2.1,0.8-3.1c0.1-0.5,0.2-1.1,0.4-1.5c0.4-0.1,1-0.1,1.4,0
		c0,0.4-0.1,0.8-0.3,1.2c-0.1,0.4-0.2,0.8-0.3,1.2c-0.2,0.7-0.4,1.5-0.7,2.3c-0.2,0.8-0.4,1.5-0.6,2.3c-0.1,0.4-0.2,0.8-0.3,1.2
		c-0.1,0.4-0.2,0.8-0.4,1.1c-0.3,0-0.6,0-0.9,0c-0.2-0.4-0.3-1-0.5-1.4c-0.5-1.5-1-2.9-1.4-4.3c-0.2,0.2-0.2,0.5-0.3,0.7
		c-0.1,0.3-0.1,0.5-0.2,0.7C62.3,17,62.1,17.4,62,18c-0.2,0.5-0.3,1-0.5,1.5c-0.2,0.4-0.3,1-0.5,1.4c-0.2,0.1-0.6,0-0.9,0
		c-0.2-0.3-0.3-0.7-0.4-1.1c-0.1-0.4-0.2-0.8-0.3-1.1c-0.2-0.8-0.4-1.5-0.6-2.3c-0.2-0.7-0.4-1.5-0.7-2.3c-0.1-0.4-0.2-0.8-0.3-1.1
		c-0.1-0.4-0.3-0.8-0.2-1.2C57.3,11.7,57.3,11.6,57.3,11.6z"/>
	<path class="st0" d="M70.4,11.6c0.5,0,1.1,0,1.6,0c0.1,0.3,0.1,0.7,0.1,1.1c0,2.3,0,4.7,0,7c0,0.4,0,0.7-0.1,1.1
		c-0.4,0-0.9,0.1-1.3,0c-0.1,0-0.3,0-0.4-0.1c-0.1-0.3-0.1-0.7-0.1-1.1c0-2.2,0-4.5,0-6.9C70.3,12.4,70.2,12,70.4,11.6
		C70.3,11.7,70.4,11.6,70.4,11.6z"/>
</g>
</svg>
