<?xml version="1.0" encoding="utf-8"?>
<!-- Generator: Adobe Illustrator 21.1.0, SVG Export Plug-In . SVG Version: 6.00 Build 0)  -->
<svg version="1.1" id="Layer_1" xmlns="http://www.w3.org/2000/svg" xmlns:xlink="http://www.w3.org/1999/xlink" x="0px" y="0px"
	 viewBox="0 0 128 32.3" style="enable-background:new 0 0 128 32.3;" xml:space="preserve">
<style type="text/css">
	.st0{fill:#555555;}
</style>
<g>
	<path class="st0" d="M106.9,1.6c2.6,0,4.8,0.6,6.9,1.6c0.4,0.2,0.5,0.3,0.1,0.7c-0.9,0.8-0.9,0.8-1.8-0.1c-1.2-1.2-1.2-1.2-2.4-0.1
		c-0.5,0.4-1.1,0.9-1.5,1.4c-0.5,0.6-0.8,0.4-1.2-0.1c-0.3-0.4-0.8-0.8-1.1-1.2c-0.2-0.3-0.4-0.2-0.6,0c-1.9,1.7-3.7,3.4-5.6,5
		c-0.4,0.3-0.2,0.5,0.1,0.7c1.1,1.2,2.2,2.4,3.3,3.6c0.3,0.3,0.3,0.5,0,0.8c-1.2,1.1-1.2,1.1-0.1,2.2c0.9,1,1.7,1.9,2.6,2.9
		c0.3,0.3,0.3,0.5,0,0.7c-0.4,0.3-1.1,0.6-1,1.1c0,0.4,0.6,0.8,0.9,1.2c1.3,1.5,2.7,3,4,4.5c0.4,0.5,0.6,0.4,1,0
		c0.7-0.7,1.6-1.4,2.3-2.1c0.4-0.4,0.7-0.4,1,0.1c0.6,0.8,1.3,1.5,2,2.3c0.4,0.4,0.4,0.6-0.1,1c-5.4,3.9-13,3.6-17.9-0.9
		c-4.4-4-5.9-9-4.4-14.7C95,6.5,99,3.1,104.8,1.8C105.5,1.7,106.3,1.6,106.9,1.6z"/>
	<path class="st0" d="M13.1,13.7c-0.7,2.5-1.4,4.9-1.9,7.4c-0.2,1-0.9,0.6-1.4,0.7c-0.6,0.1-0.7-0.2-0.8-0.7
		c-0.8-3.5-1.6-6.9-2.4-10.4c-0.1-0.5-0.1-0.7,0.5-0.6c1.3,0,1.3,0,1.5,1.2c0.5,2.4,1,4.8,1.5,7.3c0.3-0.2,0.3-0.6,0.4-0.8
		c0.6-2.3,1.2-4.7,1.7-7c0.1-0.5,0.4-0.7,0.9-0.6c0.5,0,0.8,0,1,0.6c0.6,2.4,1.2,4.8,1.9,7.2c0.1,0.2,0.1,0.4,0.3,0.7
		c0.2-1,0.4-2,0.6-3c0.3-1.6,0.6-3.1,0.9-4.7c0.1-0.6,0.3-0.8,0.9-0.7c1.2,0.1,1.2,0,0.9,1.3c-0.7,3.3-1.5,6.5-2.2,9.8
		c-0.1,0.5-0.3,0.7-0.9,0.7c-1.4-0.1-1,0.2-1.4-1.1c-0.6-2.1-1.1-4.2-1.7-6.3C13.4,14.2,13.4,14,13.1,13.7z"/>
	<path class="st0" d="M43.5,19.2c1.1-2.8,2.1-5.6,3.2-8.4c0.1-0.3,0.1-0.7,0.5-0.7c0.6,0,1.2-0.1,1.7,0c0.2,0,0.1,0.3,0.1,0.4
		c0,3.6,0,7.1,0,10.7c0,0.4-0.1,0.6-0.6,0.6c-1.4,0-1.2,0.2-1.2-1.2c0-2.1,0-4.2,0-6.3c0-0.2,0.1-0.5-0.2-0.8
		c-0.3,0.6-0.5,1.2-0.7,1.8c-0.8,1.9-1.5,3.9-2.3,5.8c-0.2,0.4-0.3,0.7-0.8,0.7s-0.6-0.3-0.8-0.6c-0.9-2.3-1.8-4.6-2.8-6.8
		c-0.1-0.2-0.1-0.5-0.4-0.7c0,0.3,0,0.5,0,0.7c0,2.3,0,4.5,0,6.8c0,0.6-0.3,0.7-0.8,0.7c-0.6,0-0.8-0.1-0.8-0.7c0-3.5,0-6.9,0-10.4
		c0-0.5,0.1-0.6,0.6-0.6c1.4,0,1.4,0,1.9,1.3c1,2.4,1.9,4.8,2.9,7.2C43.2,18.7,43.3,19,43.5,19.2z"/>
	<path class="st0" d="M30.6,13.8c0.6-0.2,1-0.3,1.5-0.4c1.8-0.4,3.2,0.5,3.7,2.3c0.3,1.2,0.3,2.5-0.1,3.7c-0.6,1.9-2.2,2.9-4.4,2.5
		h-0.1c-2.3-0.4-2.3-0.4-2.3-2.7c0-3,0-5.9,0-8.9c0-0.2-0.1-0.6,0.2-0.7c0.5-0.2,0.9-0.3,1.4-0.3c0.2,0,0.1,0.3,0.1,0.5
		C30.6,11.1,30.6,12.5,30.6,13.8z M30.6,17.8c0,0.8,0,1.5,0,2.3c0,0.2,0,0.4,0.2,0.5c1.2,0.6,2.7,0,3.1-1.2c0.3-0.9,0.4-1.9,0.2-2.9
		c-0.3-1.7-1.3-2.3-2.9-1.6c-0.4,0.2-0.7,0.4-0.6,0.9C30.7,16.5,30.6,17.1,30.6,17.8z"/>
	<path class="st0" d="M72.7,18c-0.7,0-1.4,0-2.2,0c-0.4,0-0.5,0.2-0.4,0.5c0.1,1.5,0.9,2.2,2.4,2.3c0.8,0,1.5-0.2,2.2-0.6
		c0.5-0.3,0.6-0.1,0.6,0.4s-0.1,0.8-0.6,0.9c-1,0.4-2.1,0.6-3.1,0.4c-1.6-0.2-2.6-1.1-3-2.7c-0.3-1.2-0.3-2.4,0.1-3.6
		c0.6-1.7,2.1-2.6,4-2.3c1.6,0.2,2.6,1.3,2.7,3.1c0.2,1.7,0.2,1.5-1.4,1.5C73.5,18,73.1,18,72.7,18L72.7,18z M72,16.8
		c0.5,0,0.9,0,1.4,0c0.2,0,0.4,0.1,0.4-0.2c0.1-0.7-0.5-1.7-1.2-2s-1.5-0.1-1.9,0.6c-0.2,0.3-0.4,0.7-0.5,1.1
		c-0.1,0.4,0,0.7,0.5,0.6C71.1,16.8,71.6,16.8,72,16.8z"/>
	<path class="st0" d="M27.1,20c0.2,1.2,0.1,1.3-0.9,1.7c-0.9,0.3-1.8,0.4-2.7,0.3c-1.5-0.2-2.5-1.1-2.9-2.6
		c-0.3-1.2-0.3-2.4,0.1-3.6c0.6-1.7,1.9-2.5,3.8-2.4c1.6,0.1,2.5,1.1,2.9,2.8c0.4,1.8,0.3,1.9-1.5,1.9c-1.1,0-2.1,0-3.2,0
		c-0.4,0-0.6,0.2-0.5,0.6c0.1,1.3,0.9,2.1,2.2,2.2C25.2,20.8,25.6,20.7,27.1,20z M23.9,16.8c0.5,0,0.9,0,1.4,0
		c0.4,0,0.6-0.1,0.5-0.6c-0.1-1-0.8-1.7-1.6-1.8c-0.8-0.1-1.6,0.5-1.9,1.5c-0.3,0.8-0.2,0.9,0.6,0.9C23.2,16.8,23.5,16.8,23.9,16.8z
		"/>
	<path class="st0" d="M58.4,17.6c0,0.5,0,0.9-0.1,1.4c-0.4,2-1.8,3-3.8,3c-1.9-0.1-3.2-1.2-3.5-3.2c-0.1-0.7-0.1-1.4,0-2.1
		c0.3-2.2,1.7-3.4,3.8-3.3c2,0,3.4,1.4,3.6,3.5C58.4,17.1,58.4,17.4,58.4,17.6z M52.6,17.7c0,0.7,0.1,1.5,0.4,2.2
		c0.3,0.6,0.8,0.9,1.5,0.9s1.3-0.3,1.6-0.9c0.6-1.4,0.6-2.9,0-4.3c-0.3-0.6-0.8-1-1.5-1s-1.3,0.4-1.6,1
		C52.7,16.2,52.6,16.9,52.6,17.7z"/>
	<path class="st0" d="M59.9,18.2c0-1,0-2.1,0-3.1c0-0.4,0.1-0.5,0.4-0.7c1.3-0.7,2.7-1,4.2-1c1.6,0.1,2.3,0.8,2.4,2.4
		c0,1.8,0,3.7,0,5.5c0,0.5-0.2,0.6-0.6,0.6c-1.3,0-1.1,0.2-1.2-1.2c0-1.4,0-2.8,0-4.2c0-1.6-0.7-2.1-2.2-1.7
		c-1.2,0.3-1.2,0.3-1.2,1.5c0,1.6,0,3.2,0,4.8c0,0.6-0.2,0.8-0.7,0.7c-0.2,0-0.4,0-0.6,0c-0.4,0-0.5-0.2-0.5-0.5
		C59.9,20.2,59.9,19.2,59.9,18.2z"/>
	<path class="st0" d="M76,13.7L76,13.7c1.7-0.2,1.7-0.2,2.2,1.3c0.4,1.3,0.9,2.6,1.3,3.9c0.1,0.2,0.2,0.4,0.3,0.8
		c0.6-1.8,1.1-3.4,1.6-5c0.3-1,0.7-1.3,1.8-1c0.5,0.1,0.2,0.4,0.1,0.6c-0.9,2.7-1.9,5.3-2.9,8c-0.2,0.6-0.5,1.2-0.8,1.7
		c-0.5,0.8-1.2,1.3-2.1,1.4c-0.2,0-0.7,0.2-0.6-0.3c0-0.4-0.4-0.9,0.3-1.1c0.5-0.1,0.9-0.4,1.2-0.8c0.5-0.6,0.6-1.2,0.3-2.1
		c-0.9-2.2-1.7-4.4-2.5-6.5C76.1,14.2,75.9,14,76,13.7z"/>
	<path class="st0" d="M113.4,21.4c0,0.2-0.2,0.3-0.3,0.4c-0.9,0.8-1.8,1.6-2.7,2.4c-0.3,0.3-0.4,0.3-0.7,0c-0.8-0.9-1.6-1.8-2.5-2.7
		c-0.3-0.3-0.2-0.5,0.1-0.7c0.9-0.8,1.8-1.6,2.6-2.4c0.3-0.3,0.5-0.3,0.8,0c0.8,0.9,1.6,1.8,2.4,2.6
		C113.2,21.1,113.3,21.3,113.4,21.4z"/>
	<path class="st0" d="M107.8,12.1c0.2,0,0.3,0.1,0.3,0.2c0.8,0.9,1.7,1.9,2.5,2.8c0.2,0.3,0.3,0.4,0,0.7c-0.9,0.8-1.8,1.6-2.7,2.5
		c-0.3,0.3-0.5,0.3-0.7,0c-0.8-0.9-1.6-1.8-2.5-2.7c-0.2-0.2-0.3-0.4,0-0.6c1-0.8,1.9-1.7,2.8-2.6C107.7,12.2,107.8,12.2,107.8,12.1
		z"/>
	<path class="st0" d="M105.2,12.7c-0.2,0-0.3-0.2-0.4-0.3c-0.8-0.9-1.6-1.8-2.4-2.7c-0.3-0.3-0.2-0.5,0.1-0.8
		c0.9-0.8,1.8-1.6,2.7-2.4c0.3-0.2,0.4-0.3,0.7,0c0.8,0.9,1.7,1.9,2.5,2.8c0.2,0.2,0.3,0.3,0,0.6c-1,0.9-2,1.8-2.9,2.7
		C105.3,12.6,105.2,12.6,105.2,12.7z"/>
	<path class="st0" d="M113.2,10.6c0.2,0,0.3,0.1,0.4,0.2c0.6,0.7,1.2,1.3,1.8,2c0.2,0.3,0.2,0.4,0,0.6c-0.7,0.6-1.3,1.2-2,1.8
		c-0.2,0.2-0.4,0.2-0.6,0c-0.6-0.7-1.2-1.3-1.8-2c-0.1-0.2-0.3-0.3-0.1-0.5c0.7-0.6,1.4-1.3,2.2-1.9
		C113.1,10.6,113.1,10.6,113.2,10.6z"/>
	<path class="st0" d="M117.5,26c-0.1-0.1-0.2-0.1-0.3-0.2c-0.6-0.7-1.2-1.3-1.8-2c-0.2-0.3-0.2-0.4,0-0.6c0.7-0.6,1.3-1.2,2-1.8
		c0.2-0.2,0.4-0.2,0.6,0c0.6,0.7,1.2,1.3,1.8,2c0.1,0.2,0.3,0.3,0.1,0.5c-0.7,0.6-1.4,1.3-2.2,2C117.6,25.9,117.5,25.9,117.5,26z"/>
	<path class="st0" d="M111,5.3c0.1,0.1,0.1,0.3,0.2,0.4c0.6,0.6,1.1,1.3,1.7,1.9c0.3,0.3,0.2,0.4,0,0.7c-0.6,0.6-1.3,1.1-1.9,1.7
		c-0.3,0.3-0.4,0.2-0.7,0c-0.6-0.6-1.1-1.3-1.7-1.9c-0.2-0.2-0.3-0.3-0.1-0.6c0.7-0.6,1.4-1.3,2.1-1.9C110.7,5.4,110.8,5.4,111,5.3z
		"/>
	<path class="st0" d="M117.7,18.5c-0.1,0.1-0.2,0.2-0.3,0.3c-0.7,0.6-1.3,1.2-2,1.8c-0.2,0.2-0.4,0.2-0.6-0.1
		c-0.6-0.6-1.1-1.3-1.7-1.9c-0.2-0.2-0.3-0.4,0-0.7c0.7-0.6,1.3-1.2,2-1.8c0.2-0.2,0.3-0.3,0.5,0c0.6,0.7,1.3,1.4,1.9,2.2
		C117.6,18.3,117.7,18.4,117.7,18.5z"/>
	<path class="st0" d="M117.8,13.2c-0.3-0.1-0.4-0.3-0.5-0.4c-1.1-1.2-1.1-1.2,0.1-2.4c0.4-0.4,0.7-0.4,1,0.1
		c1.1,1.3,1.1,1.2-0.2,2.3C118.1,12.9,117.9,13.1,117.8,13.2z"/>
	<path class="st0" d="M121.6,16.8c-0.2,0.2-0.4,0.4-0.6,0.6c-1.1,1-1.1,1-2-0.1c-0.6-0.7-0.6-0.7,0.1-1.3c1.1-1,1.1-1,2,0.1
		C121.2,16.3,121.4,16.5,121.6,16.8z"/>
	<path class="st0" d="M115.4,8.2c-0.1-0.2-0.2-0.4-0.3-0.5c-1.1-1.3-1.1-1.2,0.1-2.4c0.4-0.4,0.6-0.4,1,0c1.1,1.3,1.1,1.3-0.2,2.4
		C115.8,7.9,115.7,8,115.4,8.2z"/>
</g>
</svg>
