<?xml version="1.0" encoding="utf-8"?>
<!-- Generator: Adobe Illustrator 21.1.0, SVG Export Plug-In . SVG Version: 6.00 Build 0)  -->
<svg version="1.1" id="Слой_1" xmlns="http://www.w3.org/2000/svg" xmlns:xlink="http://www.w3.org/1999/xlink" x="0px" y="0px"
	 viewBox="0 0 100 94" style="enable-background:new 0 0 100 94;" xml:space="preserve">
<style type="text/css">
	.st0{fill:#FFFFFF;}
</style>
<g>
	<circle class="st0" cx="28.3" cy="41.7" r="3.7"/>
	<path class="st0" d="M94.4,18.3c-0.4-1.2-1.7-1.8-2.9-1.4c-1.2,0.4-1.8,1.7-1.4,2.9c0.5,1.5,0.5,2.6,0,3.3
		c-0.3,0.4-0.7,0.7-1.2,0.9c0.1-2.6-1.6-5.2-4.3-6.1c-0.7-0.3-1.4-0.4-2.2-0.4c-2.6,0-5,1.6-5.8,4c-1.1,3.2,0.7,6.7,4,7.9
		c0.4,0.1,0.8,0.2,1.2,0.3c-1.1,1-2.3,1.8-3.3,2.3c-6.4-7.2-16.6-11.9-28.1-11.9c-4.4,0-6.8,0-10,0.6c-3.7-4.8-9.7-7.7-16.2-7.7
		c-3,0-5.9,0.6-8.6,1.8c-0.8,0.4-1.3,1.2-1.4,2c0,0.9,0.5,1.7,1.3,2.1c0.1,0,8.8,4.6,8.8,10.7c-0.9,0.9-2.5,2.7-3.6,4
		c0,0.1-0.1,0.1-0.1,0.2l-0.3,0.4c-1.2,1.5-6,6-10.2,6c-2.8,0-5,2.3-5,5v11c0,2.8,2.3,5,5,5c5.2,0,10.6,4.4,11.2,4.9
		c0.9,0.9,2.4,2.5,3.1,3.5c2.6,9.4,2.7,10.2,3.4,14.4l0.2,0.9c0.2,1.1,1.1,1.9,2.3,1.9h8.2c1.2,0,2.1-0.9,2.3-2
		c0.3-2.1,0.7-4.6,1-6.2c5.6,1.2,11.6,1.2,17.2,0c0.4,1.6,0.8,4.1,1,6.2c0.1,1.1,1.1,2,2.3,2h8.2c1.1,0,2.1-0.8,2.3-1.9
		c0.8-4.5,2.8-12.6,3.4-14.9c6.1-5.5,9.4-12.7,9.4-20.2c0-5.1-1.5-10-4.3-14.2c2.6-1.5,5.4-3.8,6.8-6.6c1.8-0.4,4.3-1.2,5.8-3.4
		C94.8,24.3,95.6,21.9,94.4,18.3z M72.5,67.1c-0.4,0.4-0.7,0.9-0.8,1.4c-0.4,1.6-2.3,8.6-3.3,13.8h-4.3c-0.7-4.9-1.3-6.7-1.8-7.4
		c-0.5-0.9-1.6-1.4-2.6-1.1c-6.1,1.6-12.8,1.6-19,0c-1-0.3-1.9,0.1-2.5,0.9c-0.5,0.6-1.2,2.3-1.9,7.6h-4.3c-0.6-3.5-0.9-5-3.3-13.7
		c0-0.3-0.1-0.6-0.3-0.9c-1.1-1.8-3.7-4.5-4-4.8c0,0-0.1-0.1-0.1-0.1c-0.3-0.2-7.1-6-14.3-6c-0.3,0-0.5-0.2-0.5-0.5v-11
		c0-0.3,0.2-0.5,0.5-0.5c6.5,0,12.6-6.1,13.9-7.8l0.3-0.3c0,0,0,0,0.1-0.1c1.3-1.7,3.9-4.3,3.9-4.4c0.4-0.4,0.6-0.8,0.6-1.3
		c0.7-5.9-3.4-10.4-6.9-13.1c0.7-0.1,1.5-0.1,2.2-0.1c5.5,0,10.6,2.7,13.3,6.9c0.5,0.8,1.5,1.2,2.5,1c3.4-0.8,5.6-0.8,10.4-0.8
		c16.9,0,30.6,11.3,30.6,25.1C80.8,56.3,77.9,62.5,72.5,67.1z M80.8,23.1c0.2-0.6,0.8-1,1.5-1c0.2,0,0.5,0,0.7,0.1
		c0.9,0.3,1.5,1.2,1.2,2c-0.3,0.8-1.3,1.2-2.2,0.9C81.1,24.8,80.6,23.9,80.8,23.1z"/>
	<path class="st0" d="M55.3,42.6c0,1.3,1,2.3,2.3,2.3c1.3,0,2.3-1,2.3-2.3c0-4.5-3.1-8.3-7.3-9.3v-3.5c0-1.3-1-2.3-2.3-2.3
		c-1.3,0-2.3,1-2.3,2.3v3.5c-4.2,1-7.3,4.8-7.3,9.3c0,4.5,3.1,8.3,7.3,9.3v9.8c-1.6-0.8-2.7-2.5-2.7-4.5c0-1.3-1-2.3-2.3-2.3
		c-1.3,0-2.3,1-2.3,2.3c0,4.5,3.1,8.3,7.3,9.3V70c0,1.3,1,2.3,2.3,2.3c1.3,0,2.3-1,2.3-2.3v-3.5c4.2-1,7.3-4.8,7.3-9.3
		s-3.1-8.3-7.3-9.3v-9.8C54.1,38.9,55.3,40.6,55.3,42.6z M45.2,42.6c0-2,1.1-3.6,2.7-4.5v8.9C46.3,46.2,45.2,44.5,45.2,42.6z
		 M55.3,57.2c0,1.9-1.1,3.6-2.7,4.5v-8.9C54.1,53.6,55.3,55.3,55.3,57.2z"/>
</g>
</svg>
