<?xml version="1.0" encoding="utf-8"?>
<!-- Generator: Adobe Illustrator 21.1.0, SVG Export Plug-In . SVG Version: 6.00 Build 0)  -->
<svg version="1.1" id="Layer_1" xmlns="http://www.w3.org/2000/svg" xmlns:xlink="http://www.w3.org/1999/xlink" x="0px" y="0px"
	 viewBox="0 0 56.7 32.7" style="enable-background:new 0 0 56.7 32.7;" xml:space="preserve">
<style type="text/css">
	.st0{fill:#555555;}
</style>
<g>
	<path class="st0" d="M13.6,18.3c0,0.4,0.2,0.6,0.6,0.6c0.7,0,1.1-0.6,1.2-1.5c-0.2,0-0.2,0-0.4,0C14.1,17.4,13.6,17.7,13.6,18.3z"
		/>
	<path class="st0" d="M39.2,18.3c0,0.4,0.2,0.6,0.6,0.6c0.7,0,1.1-0.6,1.2-1.5c-0.2,0-0.2,0-0.4,0C39.6,17.4,39.2,17.7,39.2,18.3z"
		/>
	<path class="st0" d="M27,15.3c-0.5,0-0.9,0.4-1,1.1h1.8C27.8,16.2,28,15.3,27,15.3z"/>
	<path class="st0" d="M48.7,15.5c-0.7,0-1.3,0.9-1.3,2.1c0,0.8,0.3,1.2,0.8,1.2c0.8,0,1.3-0.9,1.3-2.1
		C49.6,15.9,49.3,15.5,48.7,15.5z"/>
	<path class="st0" d="M38.3,1.3c-3.8,0-7.3,1.4-10,3.8c-2.6-2.4-6.1-3.8-9.9-3.8C10.2,1.3,3.5,8,3.5,16.2s6.7,14.9,14.9,14.9
		c3.8,0,7.3-1.4,9.9-3.8c2.6,2.4,6.1,3.8,10,3.8c8.2,0,14.9-6.7,14.9-14.9S46.5,1.3,38.3,1.3z M9.8,20.2l0.9-5.8l-2.1,5.8H7.5
		l-0.1-5.8l-1,5.8H4.9l1.3-7.6h2.3l0.1,4.7l1.6-4.7h2.5l-1.3,7.6C11.4,20.2,9.8,20.2,9.8,20.2z M15.2,20.2v-0.6
		c-0.4,0.5-1,0.7-1.7,0.7c-0.9,0-1.5-0.7-1.5-1.7c0-1.5,1-2.4,2.8-2.4c0.2,0,0.4,0,0.7,0c0.1-0.2,0.1-0.3,0.1-0.4
		c0-0.4-0.3-0.6-1-0.6c-0.8,0-1.4,0.2-1.7,0.3c0-0.1,0.2-1.4,0.2-1.4c0.8-0.2,1.3-0.3,1.9-0.3c1.4,0,2.1,0.6,2.1,1.8
		c0,0.3,0,0.7-0.1,1.2c-0.1,0.9-0.4,2.8-0.5,3.3C16.3,20.2,15.2,20.2,15.2,20.2z M20,16.5c0.8,0.4,1.1,0.9,1.1,1.7
		c0,1.4-0.8,2.1-2.5,2.1c-1,0-1.3-0.1-1.7-0.2c0-0.1,0.2-1.4,0.2-1.4c0.5,0.2,1,0.2,1.5,0.2c0.6,0,0.9-0.2,0.9-0.6
		c0-0.3-0.1-0.4-0.8-0.7c-0.9-0.4-1.2-0.9-1.2-1.7c0-1.1,0.6-2.1,2.4-2.1c0.4,0,1,0.1,1.4,0.1l-0.2,1.4c-0.4-0.1-0.8-0.1-1.2-0.1
		c-0.5,0-0.8,0.2-0.8,0.5C19.2,16.1,19.3,16.2,20,16.5z M23.5,18.8c0.2,0,0.3,0,0.4-0.1l-0.2,1.4c-0.4,0.1-0.8,0.2-1.2,0.2
		c-0.8,0-1.3-0.5-1.3-1.4c0-0.3,0.1-1,0.2-1.6s0.7-4.2,0.7-4.2h1.6L23.5,14h0.8l-0.2,1.5h-0.8c-0.2,1.2-0.5,2.6-0.5,2.8
		C23,18.6,23.2,18.8,23.5,18.8z M27.3,18.9c0.6,0,1.1-0.1,1.7-0.4L28.7,20c-0.6,0.2-1.1,0.2-1.7,0.2c-1.8,0-2.7-0.9-2.7-2.7
		c0-2.1,1.2-3.7,2.8-3.7c1.3,0,2.2,0.9,2.2,2.2c0,0.5-0.1,0.9-0.2,1.5h-3.2C25.8,18.5,26.4,18.9,27.3,18.9z M30.9,20.2h-1.6l0.1-0.4
		c0.3-1.9,0.6-3.8,0.8-5.7h1.5c0,0.3-0.1,0.6-0.1,0.9c0.5-0.7,0.9-1.1,1.6-1c-0.2,0.3-0.5,1-0.6,1.8C31.6,15.7,31.5,16.4,30.9,20.2z
		 M37.1,20.1c-0.6,0.2-1,0.2-1.4,0.2c-1.7,0-2.8-1.3-2.8-3.3c0-2.7,1.5-4.6,3.7-4.6c0.7,0,1.5,0.3,1.8,0.4l-0.3,1.6
		c-0.6-0.3-1-0.4-1.4-0.4c-1.2,0-2.1,1.2-2.1,2.8c0,1.1,0.6,1.8,1.5,1.8c0.4,0,0.8-0.1,1.4-0.4L37.1,20.1z M42.1,20.2
		c-0.2,0-1.3,0-1.3,0v-0.6c-0.4,0.5-1,0.7-1.7,0.7c-0.9,0-1.5-0.7-1.5-1.7c0-1.5,1-2.4,2.8-2.4c0.2,0,0.4,0,0.7,0
		c0.1-0.2,0.1-0.3,0.1-0.4c0-0.4-0.3-0.6-1-0.6c-0.8,0-1.4,0.2-1.7,0.3c0-0.1,0.2-1.4,0.2-1.4c0.8-0.2,1.3-0.3,1.9-0.3
		c1.4,0,2.1,0.6,2.1,1.8c0,0.3,0,0.7-0.1,1.2C42.4,17.8,42.1,19.7,42.1,20.2z M44.3,20.2h-1.6l0.1-0.4c0.3-1.9,0.6-3.8,0.8-5.7h1.5
		c0,0.3-0.1,0.6-0.1,0.9c0.5-0.7,0.9-1.1,1.6-1c-0.2,0.3-0.5,1-0.6,1.8C45,15.7,44.8,16.4,44.3,20.2z M49.1,20.2l0.1-0.6
		c-0.4,0.5-0.9,0.7-1.5,0.7c-1.2,0-2-1-2-2.6c0-2,1.2-3.8,2.6-3.8c0.6,0,1.1,0.3,1.5,0.8l0.4-2.2h1.6l-1.2,7.6L49.1,20.2L49.1,20.2z
		"/>
</g>
</svg>
