<?xml version="1.0" encoding="utf-8"?>
<!-- Generator: Adobe Illustrator 21.1.0, SVG Export Plug-In . SVG Version: 6.00 Build 0)  -->
<svg version="1.1" id="Layer_1" xmlns="http://www.w3.org/2000/svg" xmlns:xlink="http://www.w3.org/1999/xlink" x="0px" y="0px"
	 viewBox="0 0 56.7 19.1" style="enable-background:new 0 0 56.7 19.1;" xml:space="preserve">
<style type="text/css">
	.st0{fill:#555555;}
</style>
<g>
	<polygon class="st0" points="24.2,1.8 20.9,17 24.9,17 28.1,1.8 	"/>
	<path class="st0" d="M18.4,1.8l-4.1,10.3l-1.7-8.8c-0.2-1-1-1.5-1.8-1.5H4.1L4,2.2C5.4,2.5,6.9,3,7.9,3.5c0.6,0.3,0.7,0.6,0.9,1.3
		l3.1,12.1h4.2l6.4-15.2h-4.1C18.4,1.7,18.4,1.8,18.4,1.8z"/>
	<path class="st0" d="M49.5,1.8h-3.4c-0.8,0-1.4,0.4-1.7,1.1L38.5,17h4.1l0.8-2.3h5l0.5,2.3h3.6L49.5,1.8z M44.7,11.6l2.1-5.7
		l1.2,5.7H44.7z"/>
	<path class="st0" d="M33.3,6c0-0.5,0.5-1.1,1.7-1.3c0.6-0.1,2.1-0.1,3.9,0.7l0.7-3.2c-0.9-0.3-2.2-0.7-3.7-0.7
		c-3.9,0-6.6,2.1-6.6,5c0,2.2,2,3.4,3.4,4.1c1.5,0.7,2,1.2,2,1.9c0,1-1.2,1.5-2.4,1.5c-2,0-3.1-0.5-4-1l-0.7,3.3
		c0.9,0.4,2.6,0.8,4.4,0.8c4.1,0,6.8-2,6.8-5.2C38.8,8.1,33.2,7.8,33.3,6z"/>
</g>
</svg>
